<?xml version="1.0" encoding="UTF-8" standalone="no"?>
<!-- Generator: Adobe Illustrator 26.0.1, SVG Export Plug-In . SVG Version: 6.00 Build 0)  -->

<svg
   version="1.1"
   id="Layer_1"
   x="0px"
   y="0px"
   viewBox="0 0 205 67.03"
   xml:space="preserve"
   sodipodi:docname="logo_oceans.svg"
   width="205"
   height="67.029999"
   inkscape:version="1.3.2 (091e20e, 2023-11-25, custom)"
   xmlns:inkscape="http://www.inkscape.org/namespaces/inkscape"
   xmlns:sodipodi="http://sodipodi.sourceforge.net/DTD/sodipodi-0.dtd"
   xmlns="http://www.w3.org/2000/svg"
   xmlns:svg="http://www.w3.org/2000/svg"><defs
   id="defs104" /><sodipodi:namedview
   id="namedview104"
   pagecolor="#ffffff"
   bordercolor="#000000"
   borderopacity="0.25"
   inkscape:showpageshadow="2"
   inkscape:pageopacity="0.0"
   inkscape:pagecheckerboard="0"
   inkscape:deskcolor="#d1d1d1"
   inkscape:zoom="3.2313907"
   inkscape:cx="177.01357"
   inkscape:cy="49.823749"
   inkscape:window-width="2478"
   inkscape:window-height="1411"
   inkscape:window-x="73"
   inkscape:window-y="-9"
   inkscape:window-maximized="1"
   inkscape:current-layer="Layer_1" />
<style
   type="text/css"
   id="style1">
	.st0{fill:#1B305C;}
	.st1{fill:none;stroke:#142147;stroke-width:0.5;stroke-miterlimit:10;}
	.st2{fill:#21409A;}
	.st3{fill:#DDB10A;}
	.st4{fill-rule:evenodd;clip-rule:evenodd;fill:#FFFFFF;}
	.st5{fill:#FFFFFF;}
</style>
<g
   id="g17"
   transform="translate(-280.35)"
   style="fill:#ffffff">
	<g
   id="g16"
   style="fill:#ffffff">
		<g
   id="g9"
   style="fill:#ffffff">
			<path
   class="st0"
   d="m 283.84,45.15 h 3.88 V 63.2 h -3.88 z"
   id="path1"
   style="fill:#ffffff" />
			<path
   class="st0"
   d="M 316.81,45.15 V 63.2 h -3.35 L 304.58,51.74 V 63.2 H 300.7 V 45.15 h 3.36 l 8.88,11.48 V 45.15 Z"
   id="path2"
   style="fill:#ffffff" />
			<path
   class="st0"
   d="m 336.76,56.45 c -0.61,-0.37 -1.35,-0.68 -2.23,-0.92 -0.88,-0.25 -1.75,-0.54 -2.62,-0.88 -0.87,-0.34 -1.61,-0.89 -2.22,-1.66 -0.61,-0.77 -0.92,-1.75 -0.92,-2.93 0,-1.46 0.59,-2.71 1.76,-3.74 1.17,-1.03 2.69,-1.55 4.56,-1.55 0.74,0 1.45,0.09 2.14,0.26 0.69,0.17 1.25,0.37 1.69,0.6 0.44,0.23 0.83,0.47 1.16,0.71 0.33,0.24 0.57,0.45 0.71,0.62 l 0.23,0.25 -2.32,2.45 c -0.1,-0.12 -0.24,-0.26 -0.42,-0.43 -0.18,-0.17 -0.56,-0.4 -1.14,-0.69 -0.58,-0.29 -1.17,-0.43 -1.79,-0.43 -0.74,0 -1.33,0.19 -1.78,0.57 -0.45,0.38 -0.67,0.83 -0.67,1.37 0,0.6 0.3,1.09 0.91,1.45 0.61,0.36 1.35,0.67 2.22,0.92 0.87,0.25 1.74,0.55 2.62,0.88 0.88,0.33 1.62,0.89 2.23,1.66 0.61,0.77 0.92,1.75 0.92,2.93 0,1.67 -0.61,3.03 -1.82,4.09 -1.21,1.06 -2.88,1.59 -5.01,1.59 -0.84,0 -1.65,-0.1 -2.44,-0.31 -0.78,-0.21 -1.43,-0.45 -1.94,-0.74 -0.51,-0.29 -0.95,-0.57 -1.34,-0.87 -0.39,-0.29 -0.66,-0.54 -0.83,-0.74 l -0.29,-0.32 2.33,-2.32 c 0.12,0.13 0.28,0.31 0.5,0.52 0.21,0.21 0.69,0.5 1.43,0.86 0.74,0.36 1.51,0.54 2.32,0.54 0.93,0 1.66,-0.22 2.18,-0.65 0.52,-0.44 0.79,-0.99 0.79,-1.66 -0.01,-0.58 -0.31,-1.06 -0.92,-1.43 z"
   id="path3"
   style="fill:#ffffff" />
			<path
   class="st0"
   d="m 366.52,45.15 v 3.49 h -5.15 V 63.2 h -3.86 V 48.63 h -5.16 v -3.49 h 14.17 z"
   id="path4"
   style="fill:#ffffff" />
			<path
   class="st0"
   d="m 378.23,45.15 h 3.88 V 63.2 h -3.88 z"
   id="path5"
   style="fill:#ffffff" />
			<path
   class="st0"
   d="m 407.99,45.15 v 3.49 h -5.15 V 63.2 h -3.86 V 48.63 h -5.16 v -3.49 h 14.17 z"
   id="path6"
   style="fill:#ffffff" />
			<path
   class="st0"
   d="m 428.46,58.88 c 0.78,-0.81 1.17,-1.82 1.17,-3.03 v -10.7 h 3.86 v 10.7 c 0,2.2 -0.75,4.04 -2.24,5.52 -1.49,1.48 -3.37,2.22 -5.62,2.22 -2.25,0 -4.13,-0.74 -5.62,-2.22 -1.49,-1.48 -2.24,-3.32 -2.24,-5.52 v -10.7 h 3.86 v 10.7 c 0,1.2 0.39,2.21 1.18,3.03 0.78,0.82 1.73,1.23 2.83,1.23 1.1,-0.01 2.04,-0.42 2.82,-1.23 z"
   id="path7"
   style="fill:#ffffff" />
			<path
   class="st0"
   d="m 457.45,45.15 v 3.49 H 452.3 V 63.2 h -3.86 V 48.63 h -5.16 v -3.49 h 14.17 z"
   id="path8"
   style="fill:#ffffff" />
			<path
   class="st0"
   d="m 482.19,59.72 v 3.47 H 468.65 V 45.15 h 13.28 v 3.49 h -9.4 v 3.61 h 7.34 v 3.47 h -7.34 v 4 z"
   id="path9"
   style="fill:#ffffff" />
		</g>
		<g
   id="g15"
   style="fill:#ffffff">
			<path
   class="st0"
   d="m 285.13,5.93 c 3.19,-3.13 7.13,-4.69 11.84,-4.69 4.71,0 8.65,1.56 11.84,4.69 3.19,3.13 4.78,6.96 4.78,11.48 0,4.52 -1.59,8.34 -4.78,11.48 -3.19,3.13 -7.13,4.69 -11.84,4.69 -4.71,0 -8.65,-1.56 -11.84,-4.69 -3.19,-3.13 -4.78,-6.96 -4.78,-11.48 0,-4.52 1.59,-8.35 4.78,-11.48 z m 3.55,19.77 c 2.26,2.27 5.02,3.4 8.29,3.4 3.27,0 6.03,-1.13 8.29,-3.4 2.26,-2.27 3.39,-5.03 3.39,-8.29 0,-3.26 -1.13,-6.02 -3.39,-8.28 -2.26,-2.26 -5.02,-3.39 -8.29,-3.39 -3.27,0 -6.03,1.13 -8.29,3.39 -2.26,2.26 -3.39,5.02 -3.39,8.28 0,3.26 1.13,6.02 3.39,8.29 z"
   id="path10"
   style="fill:#ffffff" />
			<path
   class="st0"
   d="m 341.56,1.86 c 1.46,0.42 2.67,0.93 3.63,1.52 0.96,0.59 1.8,1.19 2.51,1.78 0.71,0.59 1.24,1.09 1.58,1.51 l 0.48,0.61 -3.14,3.16 c -0.09,-0.12 -0.22,-0.28 -0.38,-0.49 -0.17,-0.21 -0.55,-0.6 -1.15,-1.15 -0.6,-0.56 -1.24,-1.04 -1.93,-1.44 -0.69,-0.4 -1.58,-0.78 -2.69,-1.12 -1.1,-0.34 -2.27,-0.52 -3.5,-0.52 -3.26,0 -6.03,1.13 -8.29,3.39 -2.27,2.26 -3.4,5.02 -3.4,8.28 0,3.26 1.13,6.03 3.39,8.29 2.26,2.26 5.03,3.4 8.3,3.4 1.23,0 2.4,-0.17 3.52,-0.52 1.12,-0.34 2.05,-0.76 2.79,-1.24 0.74,-0.48 1.39,-0.96 1.95,-1.44 0.56,-0.48 0.98,-0.88 1.26,-1.22 l 0.35,-0.55 3.16,3.19 c -0.12,0.18 -0.3,0.41 -0.54,0.69 -0.24,0.29 -0.78,0.79 -1.6,1.5 -0.83,0.72 -1.7,1.35 -2.63,1.91 -0.93,0.56 -2.14,1.06 -3.64,1.5 -1.5,0.45 -3.04,0.67 -4.62,0.67 -4.71,0 -8.66,-1.56 -11.85,-4.69 -3.19,-3.13 -4.78,-6.96 -4.78,-11.48 0,-4.52 1.59,-8.34 4.78,-11.48 3.19,-3.13 7.14,-4.69 11.85,-4.69 1.6,0.01 3.12,0.22 4.59,0.63 z"
   id="path11"
   style="fill:#ffffff" />
			<path
   class="st0"
   d="m 381.22,28.64 v 4.5 H 358.53 V 1.68 h 22.25 v 4.5 h -17.31 v 8.32 h 13.71 V 19 h -13.71 v 9.65 h 17.75 z"
   id="path12"
   style="fill:#ffffff" />
			<path
   class="st0"
   d="m 400.54,1.68 h 4.94 l 13.03,31.46 h -5.16 l -3.38,-8.32 h -13.93 l -3.38,8.32 h -5.16 z m -2.7,18.65 h 10.33 L 403.01,7.3 Z"
   id="path13"
   style="fill:#ffffff" />
			<path
   class="st0"
   d="m 452.88,1.68 v 31.46 h -4.26 L 431.09,10.45 v 22.69 h -4.94 V 1.68 h 4.26 l 17.53,22.71 V 1.68 Z"
   id="path14"
   style="fill:#ffffff" />
			<path
   class="st0"
   d="m 479.38,21.72 c -0.61,-0.65 -1.41,-1.16 -2.38,-1.54 -0.97,-0.37 -2.05,-0.71 -3.24,-1.01 -1.18,-0.3 -2.37,-0.67 -3.55,-1.11 -1.18,-0.44 -2.26,-0.97 -3.24,-1.58 -0.97,-0.61 -1.77,-1.49 -2.38,-2.62 -0.61,-1.13 -0.92,-2.5 -0.92,-4.09 0,-2.43 0.93,-4.46 2.79,-6.09 1.86,-1.63 4.37,-2.45 7.55,-2.45 1.17,0 2.29,0.14 3.37,0.43 1.07,0.29 1.97,0.62 2.68,1.01 0.71,0.39 1.33,0.78 1.86,1.16 0.53,0.39 0.93,0.72 1.17,1 l 0.35,0.44 -3.14,3.16 C 480.24,8.37 480.16,8.27 480.05,8.13 479.94,7.99 479.69,7.77 479.3,7.47 478.91,7.17 478.5,6.9 478.05,6.66 477.6,6.42 477.02,6.2 476.29,6.01 475.57,5.82 474.8,5.72 474,5.72 c -1.62,0 -2.93,0.4 -3.92,1.21 -0.99,0.8 -1.48,1.75 -1.48,2.83 0,0.96 0.31,1.78 0.92,2.44 0.61,0.66 1.41,1.17 2.38,1.55 0.97,0.38 2.05,0.71 3.24,1.01 1.18,0.3 2.37,0.67 3.55,1.1 1.18,0.43 2.26,0.95 3.24,1.57 0.97,0.61 1.77,1.49 2.38,2.63 0.61,1.14 0.92,2.5 0.92,4.08 0,2.78 -0.99,5.05 -2.98,6.8 -1.99,1.76 -4.74,2.63 -8.25,2.63 -1.43,0 -2.8,-0.17 -4.09,-0.52 -1.29,-0.34 -2.36,-0.75 -3.19,-1.23 -0.83,-0.48 -1.56,-0.95 -2.17,-1.44 -0.61,-0.48 -1.06,-0.88 -1.34,-1.21 l -0.44,-0.55 3.14,-3.14 c 0.06,0.09 0.16,0.22 0.3,0.38 0.14,0.17 0.45,0.46 0.94,0.88 0.49,0.42 1.02,0.78 1.59,1.1 0.57,0.32 1.33,0.6 2.27,0.86 0.94,0.26 1.94,0.38 2.99,0.38 1.95,0 3.48,-0.48 4.61,-1.43 1.13,-0.95 1.69,-2.13 1.69,-3.53 0.01,-0.94 -0.3,-1.75 -0.92,-2.4 z"
   id="path15"
   style="fill:#ffffff" />
		</g>
	</g>
</g>


</svg>
